<svg fill="none" height="117" viewBox="0 0 725 117" width="725" xmlns="http://www.w3.org/2000/svg" xmlns:xlink="http://www.w3.org/1999/xlink"><linearGradient id="a"><stop offset="0" stop-color="#996939"/><stop offset="1" stop-color="#d0a875"/></linearGradient><linearGradient id="b" gradientUnits="userSpaceOnUse" x1="175.25" x2="22.4384" xlink:href="#a" y1="37.3766" y2="37.3766"/><linearGradient id="c" gradientUnits="userSpaceOnUse" x1="91.4233" x2="106.443" y1="116.935" y2="-25.4037"><stop offset="0" stop-color="#272728"/><stop offset="1" stop-color="#4b4b4b"/></linearGradient><linearGradient id="d" gradientUnits="userSpaceOnUse" x1="60.812" x2=".028237" xlink:href="#a" y1="15.4104" y2="63.081"/><linearGradient id="e" gradientUnits="userSpaceOnUse" x1="30.2194" x2="30.2194" y1="116.935" y2="42.5219"><stop offset="0" stop-color="#363636"/><stop offset="1" stop-color="#333232"/></linearGradient><path d="m60.4388 0 61.9692 37.5862v37.5865l-61.9692-37.5865z" fill="url(#b)"/><path d="m60.4388 116.935 61.9692-37.2062v-37.2069l-61.9692 37.2069z" fill="url(#c)"/><path d="m60.4388 0-60.4388 37.5862v37.5865l60.4388-37.5865z" fill="url(#d)"/><path d="m60.4388 116.935-60.4388-37.2062v-37.2069l60.4388 37.2069z" fill="url(#e)"/><path clip-rule="evenodd" d="m196.9 95.0396h10.397v-33.9931h.005v-8.9179h-.005v-31.1603h-10.397zm21.424-33.9931h-.004v-8.9179h.004l18.694-31.1603h11.447l-21.529 35.1471v.2099l22.895 38.7143h-11.763zm100.931-40.0782-14.493 54.3469c-1.05 4.0918-1.575 7.8688-1.575 7.8688h-.21s-.42-3.8819-1.366-7.8688l-13.127-54.3469h-10.712l18.903 74.0713h12.078l12.813-48.0519c1.26-4.7213 2.205-10.4917 2.205-10.4917h.21s.945 5.7704 2.206 10.4917l12.812 48.0519h12.078l19.429-74.0713h-10.712l-13.653 54.3469c-1.05 3.9869-1.366 7.8688-1.366 7.8688h-.21s-.525-3.777-1.575-7.8688l-14.493-54.3469zm131.618 74.0713h-44.844v-74.0713h43.059v9.0229h-32.662v23.1866h26.57v9.0228h-26.57v23.8161h34.447zm37.413 0h10.397v-48.0519c0-4.1967-.735-10.8064-.735-10.8064h.21s3.466 6.7146 6.196 10.8064l33.082 48.0519h10.187v-74.0713h-10.397v48.1568c0 4.0918.735 10.7015.735 10.7015h-.21s-3.465-6.7146-6.196-10.7015l-32.977-48.1568h-10.292zm127.794 0h-10.397v-65.0484h-25.415v-9.0229h61.228v9.0229h-25.416zm97.755 0h10.818l-26.676-74.0713h-10.922l-26.676 74.0713h10.712l7.243-20.9816h-.003l2.842-8.9197.001-.0004 8.296-23.501c1.26-3.777 2.941-10.4917 2.941-10.4917h.21s1.575 6.7147 2.835 10.4917l8.192 23.501h.003l2.82 8.8676z" fill="#fff" fill-rule="evenodd"/></svg>