<svg width="528" height="75" viewBox="0 0 528 75" fill="none" xmlns="http://www.w3.org/2000/svg">
<path fill-rule="evenodd" clip-rule="evenodd" d="M0 74.0713H10.397V40.0782H10.402V31.1603H10.397V0H0V74.0713ZM21.424 40.0782H21.42V31.1603H21.424L40.118 0H51.565L30.036 35.1471V35.357L52.931 74.0713H41.168L21.424 40.0782ZM122.355 0L107.862 54.3469C106.812 58.4387 106.287 62.2157 106.287 62.2157H106.077C106.077 62.2157 105.657 58.3338 104.711 54.3469L91.584 0H80.872L99.775 74.0713H111.853L124.666 26.0194C125.926 21.2981 126.871 15.5277 126.871 15.5277H127.081C127.081 15.5277 128.026 21.2981 129.287 26.0194L142.099 74.0713H154.177L173.606 0H162.894L149.241 54.3469C148.191 58.3338 147.875 62.2157 147.875 62.2157H147.665C147.665 62.2157 147.14 58.4387 146.09 54.3469L131.597 0H122.355ZM253.973 74.0713H209.129V0H252.188V9.0229H219.526V32.2095H246.096V41.2323H219.526V65.0484H253.973V74.0713ZM291.386 74.0713H301.783V26.0194C301.783 21.8227 301.048 15.213 301.048 15.213H301.258C301.258 15.213 304.724 21.9276 307.454 26.0194L340.536 74.0713H350.723V0H340.326V48.1568C340.326 52.2486 341.061 58.8583 341.061 58.8583H340.851C340.851 58.8583 337.386 52.1437 334.655 48.1568L301.678 0H291.386V74.0713ZM419.18 74.0713H408.783V9.0229H383.368V0H444.596V9.0229H419.18V74.0713ZM516.935 74.0713H527.753L501.077 0H490.155L463.479 74.0713H474.191L481.434 53.0897H481.431L484.273 44.17L484.274 44.1696L492.57 20.6686C493.83 16.8916 495.511 10.1769 495.511 10.1769H495.721C495.721 10.1769 497.296 16.8916 498.556 20.6686L506.748 44.1696H506.751L509.571 53.0372L516.935 74.0713Z" fill="black"/>
</svg>
